Coordinates
nRows=8
nColumns=24

# SIMM Motion File Header:
name Coordinates
datacolumns 24
datarows 8
otherdata 1
range 0.45700000000000002000 0.46400000000000002000
endheader
time	pelvis_tx	pelvis_ty	pelvis_tz	pelvis_tilt	pelvis_list	pelvis_rotation	hip_flexion_r	hip_adduction_r	hip_rotation_r	knee_angle_r	ankle_angle_r	subtalar_angle_r	mtp_angle_r	hip_flexion_l	hip_adduction_l	hip_rotation_l	knee_angle_l	ankle_angle_l	subtalar_angle_l	mtp_angle_l	lumbar_extension	lumbar_bending	lumbar_rotation
      0.45700000000000002000	      1.67891774960475230000	      0.95938550340830242000	     -0.24424567555641177000	      4.58546068437226320000	     -1.13095568553451660000	      2.40751260360912060000	     20.42852221060077200000	     -0.59047162026134292000	      2.03590029187666840000	    -25.24745848709470100000	      6.63937747142528690000	     -0.00000000000000872053	      0.00000000000001427949	    -13.16543299838538900000	     -0.09105886864462553500	     11.19584425368067000000	     -8.36254078218644640000	     13.66557898573171500000	      0.00000000000007879251	     -0.00000000000004999557	     -9.86570028708324640000	      1.22633014500671190000	      8.20875214127152830000
      0.45800000000000002000	      1.68000576288606850000	      0.95920622567991209000	     -0.24429755092363739000	      4.59304590376870790000	     -1.13295614933662000000	      2.45237517582771810000	     20.44128543636774300000	     -0.61279119815906846000	      1.95014383883902130000	    -25.01154261453543600000	      6.58903739464135270000	     -0.00000000000000872027	      0.00000000000001444665	    -13.24825186510455700000	     -0.10149718214860096000	     11.19965937356749000000	     -8.36514376821734200000	     13.70830351185536400000	      0.00000000000007957660	     -0.00000000000005107956	     -9.87055280911799040000	      1.24877131523525550000	      8.17157790431327950000
      0.45900000000000002000	      1.68109457358483390000	      0.95902579300096846000	     -0.24435006538016588000	      4.60060268030815500000	     -1.13437016186366190000	      2.49751621400649480000	     20.45353915315671100000	     -0.63586670887967445000	      1.86481284589876140000	    -24.77606307066327700000	      6.53783125578521760000	     -0.00000000000000871484	      0.00000000000001458731	    -13.33076151683115100000	     -0.11150425866569724000	     11.20245461822799600000	     -8.36843158616970760000	     13.74970146621711100000	      0.00000000000008039319	     -0.00000000000005225824	     -9.87533433935308480000	      1.27074499029046220000	      8.13384351974511690000
      0.46000000000000002000	      1.68218338428359940000	      0.95884536032202483000	     -0.24440257983669436000	      4.60815945684760300000	     -1.13578417439070290000	      2.54265725218527240000	     20.46579286994568400000	     -0.65894221960028154000	      1.77948185295850240000	    -24.54058352679112100000	      6.48662511692908250000	     -0.00000000000000870941	      0.00000000000001472796	    -13.41327116855774700000	     -0.12151133518279290000	     11.20524986288850200000	     -8.37171940412207330000	     13.79109942057885600000	      0.00000000000008120978	     -0.00000000000005343692	     -9.88011586958817920000	      1.29271866534566810000	      8.09610913517695430000
      0.46100000000000002000	      1.68327371205118780000	      0.95866314421981225000	     -0.24445618631033436000	      4.61582105598278860000	     -1.13620463360017990000	      2.58832373312952460000	     20.47691945257352600000	     -0.68325869683090790000	      1.69516839494990100000	    -24.30594236318781000000	      6.43478824155925810000	     -0.00000000000000869987	      0.00000000000001486962	    -13.49540844523910000000	     -0.13084254934901343000	     11.20624641802219100000	     -8.37619555543369110000	     13.83076722053569600000	      0.00000000000008204034	     -0.00000000000005473516	     -9.88494477637400410000	      1.31391453616713540000	      8.05740296230181310000
      0.46200000000000002000	      1.68436403981877650000	      0.95848092811759966000	     -0.24450979278397439000	      4.62348265511797330000	     -1.13662509280965710000	      2.63399021407377680000	     20.48804603520136400000	     -0.70757517406153447000	      1.61085493694129970000	    -24.07130119958449700000	      6.38295136618943460000	     -0.00000000000000869033	      0.00000000000001501127	    -13.57754572192045500000	     -0.14017376351523392000	     11.20724297315588200000	     -8.38067170674530710000	     13.87043502049253400000	      0.00000000000008287090	     -0.00000000000005603341	     -9.88977368315982910000	      1.33511040698860260000	      8.01869678942667190000
      0.46300000000000002000	      1.68545592920850050000	      0.95829690841344517000	     -0.24456433047434897000	      4.63117662861450970000	     -1.13608433225669800000	      2.68012315454609370000	     20.49814019264262300000	     -0.73301668878715331000	      1.52796531197531960000	    -23.83766250250727100000	      6.33125758523378310000	     -0.00000000000000868685	      0.00000000000001517311	    -13.65920470201255000000	     -0.14885278849267003000	     11.20649987143721500000	     -8.38643258493831740000	     13.91007619135488200000	      0.00000000000008372184	     -0.00000000000005748819	     -9.89457250852539080000	      1.35553681740187560000	      7.97911561672987530000
      0.46400000000000002000	      1.68654781859822460000	      0.95811288870929068000	     -0.24461886816472356000	      4.63887060211104620000	     -1.13554357170373900000	      2.72625609501841070000	     20.50823435008388200000	     -0.75845820351277227000	      1.44507568700933950000	    -23.60402380543004600000	      6.27956380427813170000	     -0.00000000000000868337	      0.00000000000001533494	    -13.74086368210464700000	     -0.15753181347010611000	     11.20575676971854600000	     -8.39219346313132770000	     13.94971736221723000000	      0.00000000000008457278	     -0.00000000000005894297	     -9.89937133389095440000	      1.37596322781514830000	      7.93953444403307880000
